<svg width="16" height="16" viewBox="0 0 16 16" fill="none" xmlns="http://www.w3.org/2000/svg">
<g clip-path="url(#clip0_1_114)">
<path fill-rule="evenodd" clip-rule="evenodd" d="M7.17884 14.1516C7.4828 14.1981 7.79412 14.2222 8.11112 14.2222C11.4862 14.2222 14.2222 11.4862 14.2222 8.11112C14.2222 4.73603 11.4862 2 8.11112 2C7.88468 2 7.66109 2.01232 7.44105 2.03632C9.11527 3.30472 10.2222 5.50194 10.2222 8C10.2222 10.6263 8.99874 12.92 7.17884 14.1516ZM7.99999 16C12.4183 16 16 12.4183 16 8C16 3.58172 12.4183 0 7.99999 0C3.58171 0 0 3.58172 0 8C0 12.4183 3.58171 16 7.99999 16Z" fill="white"/>
</g>
<defs>
<clipPath id="clip0_1_114">
<rect width="16" height="16" fill="white"/>
</clipPath>
</defs>
</svg>
