<svg width="16" height="16" viewBox="0 0 16 16" fill="none" xmlns="http://www.w3.org/2000/svg">
<g clip-path="url(#clip0_1_104)">
<path fill-rule="evenodd" clip-rule="evenodd" d="M12.3793 8.09452C12.3784 8.09327 12.378 8.09171 12.3783 8.09017L13.399 2.13811C13.3995 2.13536 13.4019 2.13336 13.4047 2.13336H13.7277C13.7302 2.13336 13.7324 2.13498 13.7332 2.13735L16.0328 9.41871C16.0336 9.42096 16.0328 9.42346 16.0309 9.42492L14.3353 10.7488C14.3328 10.7507 14.3291 10.7502 14.3272 10.7476L12.3793 8.09452ZM0 12.0403C0 12.0428 0.00158737 12.045 0.00393409 12.0457L3.49922 13.1886C3.50091 13.1891 3.50278 13.1889 3.50425 13.1879L11.317 7.79411C11.3183 7.79321 11.3192 7.7918 11.3194 7.79024L12.1573 2.16862C12.1578 2.16517 12.1551 2.16207 12.1516 2.16207H5.23144C5.22972 2.16207 5.22813 2.16283 5.22703 2.16414L0.00131331 8.46817C0.000464374 8.46921 0 8.47049 0 8.47183V12.0403ZM4.95572 13.4798L8.77425 14.7306C8.77597 14.7312 8.77787 14.7309 8.77934 14.7298L13.3256 11.4688C13.3281 11.467 13.3287 11.4635 13.327 11.461L11.6228 8.92489C11.621 8.92224 11.6174 8.92155 11.6148 8.92336L4.95572 13.4798Z" fill="white"/>
</g>
<defs>
<clipPath id="clip0_1_104">
<rect width="16" height="16" fill="white"/>
</clipPath>
</defs>
</svg>
