<svg width="16" height="16" viewBox="0 0 16 16" fill="none" xmlns="http://www.w3.org/2000/svg">
<path fill-rule="evenodd" clip-rule="evenodd" d="M14.2566 13.2887C14.2566 13.2887 12.2391 14.9068 8.22432 14.2372C5.17838 13.7292 3.55382 10.3715 3.55382 8.56668C3.55382 4.28762 6.72088 3.31383 8.86204 3.31383C11.0032 3.31383 12.3999 5.40133 12.3999 7.01759C12.3999 8.63384 11.2568 10.0475 9.47785 10.0475C7.69891 10.0475 7.17204 8.79862 7.17204 7.6504C7.17204 6.50221 8.10101 6.09768 8.94822 6.09768C9.79544 6.09768 10.0855 6.82099 10.0855 7.44265C10.0855 8.06434 9.60319 8.28696 9.20088 8.28696C8.79857 8.28696 8.75879 8.08399 8.60482 7.87068C8.45082 7.6574 8.80119 6.85002 8.22432 6.85002C7.64744 6.85002 7.53991 7.77818 7.53991 7.77818C7.53991 7.77818 7.75022 9.56984 9.47785 9.53893C11.2055 9.50799 12.0251 8.17237 11.7869 6.85002C11.5487 5.52765 10.2654 4.12249 8.01307 4.40643C5.76076 4.69037 4.84116 6.96612 5.2465 9.39812C5.65185 11.8301 8.56538 13.2393 10.8562 12.7323C13.147 12.2253 15.4286 10.5669 15.4286 6.36212C15.4286 2.1573 11.7869 -0.370172 7.44457 0.0463696C3.10222 0.462909 0.406692 4.25927 0.579229 8.82068C0.751767 13.3821 5.08 15.8664 8.73997 15.9944C12.3999 16.1225 14.6437 14.0038 14.6437 14.0038C14.6437 14.0038 15.1483 13.5538 14.9504 13.2025C14.7526 12.8511 14.2566 13.2887 14.2566 13.2887Z" fill="white"/>
</svg>
