<svg width="131" height="32" viewBox="0 0 131 32" fill="none" xmlns="http://www.w3.org/2000/svg">
  <path fill-rule="evenodd" clip-rule="evenodd"
        d="M6.82287 8.18603C4.63538 9.88608 0.145052 14.3665 0.00322456 19.8008C-0.143965 25.4426 4.75783 32.3534 12.6611 31.9859C21.5659 31.5718 25.1907 24.9534 24.9923 19.3198C24.8279 14.6519 21.3158 11.3673 19.56 9.72526C19.2761 9.45976 19.0381 9.23719 18.8676 9.05866L9.72124 0L9.8553 11.1628L6.82287 8.18603ZM10.1306 16.6455C9.24454 17.3355 7.57479 18.8973 7.51745 21.1028C7.4578 23.3924 9.44328 26.197 12.6445 26.0479C16.2514 25.8798 17.7196 23.1938 17.6393 20.9076C17.5727 19.0131 16.1501 17.6802 15.4389 17.0137C15.3239 16.9059 15.2276 16.8156 15.1585 16.7432L11.4537 13.0668L11.5113 17.459L10.1306 16.6455Z"
        fill="url(#paint0_linear_49_366)"/>
  <path
    d="M34.5309 14.02H39.7309C40.9975 14.02 41.9975 14.1067 42.7309 14.28C43.4775 14.4533 44.0175 14.76 44.3509 15.2C44.6975 15.6267 44.8709 16.2267 44.8709 17V19.46C44.8709 20.3133 44.6842 20.98 44.3109 21.46C43.9509 21.94 43.3709 22.28 42.5709 22.48C41.7842 22.68 40.7175 22.78 39.3709 22.78H37.6509V27H34.5309V14.02ZM39.6309 20.64C40.4442 20.64 41.0175 20.5467 41.3509 20.36C41.6842 20.16 41.8509 19.8267 41.8509 19.36V17.28C41.8509 16.8533 41.6909 16.5733 41.3709 16.44C41.0642 16.3067 40.4709 16.24 39.5909 16.24H37.6509V20.64H39.6309ZM51.5899 27.2C50.9899 27.2 50.4966 27.18 50.1099 27.14C49.7233 27.1 49.3099 27.02 48.8699 26.9C48.3899 26.7667 48.0033 26.58 47.7099 26.34C47.4166 26.0867 47.1699 25.7333 46.9699 25.28C46.7699 24.84 46.6699 24.3067 46.6699 23.68V20.82C46.6699 20.18 46.7699 19.62 46.9699 19.14C47.1699 18.66 47.4299 18.2867 47.7499 18.02C48.0299 17.7933 48.3966 17.6067 48.8499 17.46C49.3166 17.3 49.7699 17.2 50.2099 17.16C50.7166 17.1333 51.1766 17.12 51.5899 17.12C52.2033 17.12 52.6899 17.14 53.0499 17.18C53.4233 17.2067 53.8299 17.2867 54.2699 17.42C54.7499 17.5667 55.1366 17.7667 55.4299 18.02C55.7366 18.2733 55.9966 18.6333 56.2099 19.1C56.4099 19.58 56.5099 20.1533 56.5099 20.82V23.68C56.5099 24.28 56.4099 24.8067 56.2099 25.26C56.0233 25.7133 55.7766 26.0667 55.4699 26.32C55.2033 26.5467 54.8366 26.7333 54.3699 26.88C53.9166 27.0133 53.4699 27.1 53.0299 27.14C52.6299 27.18 52.1499 27.2 51.5899 27.2ZM51.5899 25.38C52.1366 25.38 52.5499 25.34 52.8299 25.26C53.1099 25.1667 53.3033 25.0267 53.4099 24.84C53.5299 24.6533 53.5899 24.38 53.5899 24.02V20.36C53.5899 19.8267 53.4499 19.4533 53.1699 19.24C52.8899 19.0267 52.3633 18.92 51.5899 18.92C50.8166 18.92 50.2899 19.0267 50.0099 19.24C49.7299 19.4533 49.5899 19.8267 49.5899 20.36V24.02C49.5899 24.38 49.6433 24.6533 49.7499 24.84C49.8699 25.0267 50.0699 25.1667 50.3499 25.26C50.6299 25.34 51.0433 25.38 51.5899 25.38ZM58.7859 13H61.7059V27H58.7859V13ZM61.8259 21.56L65.0059 17.32H68.3459L64.9859 21.54L68.6259 27H65.3259L61.8259 21.56ZM74.4466 27.2C71.02 27.2 69.3066 26.1533 69.3066 24.06V20.58C69.3066 19.3667 69.6933 18.4867 70.4666 17.94C71.2533 17.3933 72.46 17.12 74.0866 17.12C75.62 17.12 76.74 17.3867 77.4466 17.92C78.1666 18.44 78.5266 19.3267 78.5266 20.58V22.94H72.2466V23.82C72.2466 24.38 72.4466 24.78 72.8466 25.02C73.2466 25.26 73.9666 25.38 75.0066 25.38C75.9666 25.38 77.0466 25.24 78.2466 24.96V26.82C77.06 27.0733 75.7933 27.2 74.4466 27.2ZM75.7466 21.28V19.88C75.7466 19.56 75.6133 19.32 75.3466 19.16C75.0933 19 74.66 18.92 74.0466 18.92C73.34 18.92 72.8666 19 72.6266 19.16C72.3733 19.3333 72.2466 19.5733 72.2466 19.88V21.28H75.7466ZM84.3785 27.2C83.3385 27.2 82.0652 27.1 80.5585 26.9V24.96C82.4118 25.24 83.6985 25.38 84.4185 25.38C85.0318 25.38 85.4852 25.32 85.7785 25.2C86.0718 25.08 86.2185 24.86 86.2185 24.54V23.94C86.2185 23.6067 86.1252 23.3733 85.9385 23.24C85.7518 23.0933 85.3852 23.02 84.8385 23.02H83.5785C82.5518 23.02 81.7585 22.82 81.1985 22.42C80.6385 22.0067 80.3585 21.4067 80.3585 20.62V19.44C80.3585 18.6 80.7585 18.0067 81.5585 17.66C82.3585 17.3 83.5652 17.12 85.1785 17.12C85.8185 17.12 86.9652 17.18 88.6185 17.3V19.16C86.5385 19 85.3652 18.92 85.0985 18.92C84.3118 18.92 83.7985 18.9733 83.5585 19.08C83.3452 19.2 83.2385 19.42 83.2385 19.74V20.26C83.2385 20.4333 83.3252 20.5867 83.4985 20.72C83.6718 20.84 83.9252 20.9 84.2585 20.9H85.5385C87.9118 20.9 89.0985 21.6733 89.0985 23.22V24.44C89.0985 24.9067 89.0118 25.3133 88.8385 25.66C88.6652 26.0067 88.4385 26.28 88.1585 26.48C87.8918 26.6667 87.5452 26.8133 87.1185 26.92C86.7052 27.0267 86.2718 27.1 85.8185 27.14C85.4052 27.18 84.9252 27.2 84.3785 27.2ZM96.1063 27.2C95.613 27.2 95.1997 27.18 94.8663 27.14C94.533 27.1 94.1997 27.02 93.8663 26.9C93.493 26.78 93.1863 26.6133 92.9463 26.4C92.7197 26.1867 92.533 25.8933 92.3863 25.52C92.2263 25.1333 92.1463 24.6867 92.1463 24.18V19.12H90.1863V17.32H92.1463V14.52H95.0663V17.32H97.7263V19.12H95.0663V23.68C95.0663 24.1467 95.1063 24.5 95.1863 24.74C95.2663 24.9667 95.4197 25.1333 95.6463 25.24C95.873 25.3333 96.2197 25.38 96.6863 25.38C96.873 25.38 97.2197 25.3467 97.7263 25.28V27.1C97.0997 27.1667 96.5597 27.2 96.1063 27.2ZM102.151 27.2C101.244 27.2 100.564 27.12 100.111 26.96C99.6709 26.7867 99.3575 26.4867 99.1709 26.06C98.9975 25.62 98.9109 24.9667 98.9109 24.1C98.9109 23.3267 99.0042 22.72 99.1909 22.28C99.3909 21.84 99.7042 21.5267 100.131 21.34C100.571 21.14 101.171 21.04 101.931 21.04H105.211V20.38C105.211 19.9667 105.151 19.66 105.031 19.46C104.924 19.26 104.718 19.12 104.411 19.04C104.118 18.96 103.671 18.92 103.071 18.92C102.244 18.92 101.111 19 99.6709 19.16V17.32C100.724 17.1867 101.958 17.12 103.371 17.12C104.611 17.12 105.564 17.2133 106.231 17.4C106.911 17.5867 107.398 17.9067 107.691 18.36C107.984 18.8133 108.131 19.4733 108.131 20.34V27H105.271V26.12C105.044 26.5067 104.738 26.78 104.351 26.94C103.964 27.1133 103.231 27.2 102.151 27.2ZM103.291 25.38C103.878 25.38 104.298 25.36 104.551 25.32C104.738 25.2933 104.864 25.2533 104.931 25.2C105.011 25.1467 105.078 25.06 105.131 24.94C105.184 24.8467 105.211 24.7067 105.211 24.52V22.64H103.211C102.758 22.64 102.438 22.6733 102.251 22.74C102.064 22.7933 101.938 22.9133 101.871 23.1C101.804 23.2733 101.771 23.5867 101.771 24.04C101.771 24.48 101.804 24.7867 101.871 24.96C101.938 25.1333 102.064 25.2467 102.251 25.3C102.451 25.3533 102.798 25.38 103.291 25.38ZM115.42 27.2C114.913 27.2 114.513 27.1867 114.22 27.16C113.927 27.1467 113.567 27.1133 113.14 27.06C112.713 27.0067 112.36 26.9133 112.08 26.78C111.813 26.6467 111.533 26.4467 111.24 26.18C110.693 25.7267 110.42 24.9533 110.42 23.86V20.64C110.42 19.76 110.62 19.0267 111.02 18.44C111.167 18.2267 111.38 18.0333 111.66 17.86C111.953 17.6733 112.247 17.5267 112.54 17.42C112.78 17.34 113.1 17.2733 113.5 17.22C113.9 17.1667 114.253 17.1333 114.56 17.12H115.62C116.367 17.12 117.347 17.24 118.56 17.48V19.4C117.187 19.08 116.133 18.92 115.4 18.92C114.053 18.92 113.38 19.3733 113.38 20.28V23.84C113.38 24.8667 114.12 25.38 115.6 25.38C116.32 25.38 117.353 25.2333 118.7 24.94V26.86C117.487 27.0867 116.393 27.2 115.42 27.2ZM120.348 13H123.268V27H120.348V13ZM123.388 21.56L126.568 17.32H129.908L126.548 21.54L130.188 27H126.888L123.388 21.56Z"
    fill="white"/>
  <defs>
    <linearGradient id="paint0_linear_49_366" x1="12.5" y1="12.9231" x2="12.5" y2="36.3846"
                    gradientUnits="userSpaceOnUse">
      <stop stop-color="#CE4265"/>
      <stop offset="1" stop-color="#323D60" stop-opacity="0"/>
    </linearGradient>
  </defs>
</svg>
