<svg width="25" height="32" viewBox="0 0 25 32" fill="none" xmlns="http://www.w3.org/2000/svg">
  <path fill-rule="evenodd" clip-rule="evenodd"
        d="M6.82287 8.18603C4.63538 9.88608 0.145052 14.3665 0.00322456 19.8008C-0.143965 25.4426 4.75783 32.3534 12.6611 31.9859C21.5659 31.5718 25.1907 24.9534 24.9923 19.3198C24.8279 14.6519 21.3158 11.3673 19.56 9.72526C19.2761 9.45976 19.0381 9.23719 18.8676 9.05866L9.72124 0L9.8553 11.1628L6.82287 8.18603ZM10.1306 16.6455C9.24454 17.3355 7.57479 18.8973 7.51745 21.1028C7.4578 23.3924 9.44328 26.197 12.6445 26.0479C16.2514 25.8798 17.7196 23.1938 17.6393 20.9076C17.5727 19.0131 16.1501 17.6802 15.4389 17.0137C15.3239 16.9059 15.2276 16.8156 15.1585 16.7432L11.4537 13.0668L11.5113 17.459L10.1306 16.6455Z"
        fill="url(#paint0_linear_49_365)"/>
  <defs>
    <linearGradient id="paint0_linear_49_365" x1="12.5" y1="12.9231" x2="12.5" y2="36.3846"
                    gradientUnits="userSpaceOnUse">
      <stop stop-color="#CE4265"/>
      <stop offset="1" stop-color="#323D60" stop-opacity="0"/>
    </linearGradient>
  </defs>
</svg>
