<svg width="16" height="16" viewBox="0 0 16 16" fill="none" xmlns="http://www.w3.org/2000/svg">
<path d="M12.8599 7.2891C12.6628 7.02242 12.4229 6.7913 12.2001 6.56019C11.6259 6.02684 10.9746 5.64461 10.4261 5.08459C9.1492 3.78677 8.86639 1.64449 9.68053 0C8.86639 0.20445 8.15509 0.666686 7.54663 1.17337C5.32704 3.02231 4.45291 6.28462 5.49844 9.0847C5.53272 9.1736 5.56699 9.26249 5.56699 9.37805C5.56699 9.57361 5.43845 9.75139 5.26705 9.8225C5.06994 9.91139 4.86427 9.85806 4.70144 9.71583C4.65002 9.67139 4.61574 9.62694 4.58146 9.56472C3.61307 8.29357 3.45881 6.4713 4.11012 5.01348C2.67895 6.2224 1.8991 8.2669 2.0105 10.1958C2.06192 10.6403 2.11334 11.0848 2.25903 11.5292C2.37901 12.0626 2.61039 12.5959 2.86749 13.067C3.79303 14.6049 5.3956 15.7071 7.11814 15.9293C8.95209 16.1693 10.9146 15.8227 12.32 14.5071C13.8883 13.0315 14.4368 10.667 13.6312 8.64025L13.5198 8.40913C13.3399 8.00023 12.8599 7.2891 12.8599 7.2891ZM10.1519 12.8893C9.91191 13.1026 9.5177 13.3337 9.20919 13.4226C8.24936 13.7782 7.28954 13.2804 6.72393 12.6937C7.74374 12.4448 8.3522 11.6626 8.53217 10.8714C8.67785 10.1603 8.40362 9.57361 8.29221 8.88914C8.18937 8.23135 8.20651 7.67133 8.4379 7.05798C8.60073 7.39577 8.77212 7.73355 8.9778 8.00023C9.63768 8.88914 10.6746 9.28026 10.8974 10.4892C10.9317 10.6136 10.9489 10.7381 10.9489 10.8714C10.9746 11.6003 10.6661 12.4004 10.1519 12.8893Z" fill="currentColor"/>
</svg>
