<svg width="16" height="16" viewBox="0 0 16 16" fill="none" xmlns="http://www.w3.org/2000/svg">
<path d="M8 0C9.05058 0 10.0909 0.206926 11.0615 0.608964C12.0321 1.011 12.914 1.60028 13.6569 2.34315C14.3997 3.08601 14.989 3.96793 15.391 4.93853C15.7931 5.90914 16 6.94943 16 8C16 10.1217 15.1571 12.1566 13.6569 13.6569C12.1566 15.1571 10.1217 16 8 16C6.94943 16 5.90914 15.7931 4.93853 15.391C3.96793 14.989 3.08601 14.3997 2.34315 13.6569C0.842855 12.1566 0 10.1217 0 8C0 5.87827 0.842855 3.84344 2.34315 2.34315C3.84344 0.842855 5.87827 0 8 0ZM8 1.6C4.736 1.6 2.04 4.04 1.648 7.2H4.904C5.256 5.816 6.512 4.8 8 4.8C9.488 4.8 10.744 5.816 11.096 7.2H14.352C13.96 4.04 11.264 1.6 8 1.6ZM8 14.4C11.264 14.4 13.96 11.96 14.352 8.8H11.096C10.744 10.184 9.488 11.2 8 11.2C6.512 11.2 5.256 10.184 4.904 8.8H1.648C2.04 11.96 4.736 14.4 8 14.4ZM8 6.4C7.57565 6.4 7.16869 6.56857 6.86863 6.86863C6.56857 7.16869 6.4 7.57565 6.4 8C6.4 8.42435 6.56857 8.83131 6.86863 9.13137C7.16869 9.43143 7.57565 9.6 8 9.6C8.42435 9.6 8.83131 9.43143 9.13137 9.13137C9.43143 8.83131 9.6 8.42435 9.6 8C9.6 7.57565 9.43143 7.16869 9.13137 6.86863C8.83131 6.56857 8.42435 6.4 8 6.4Z" fill="currentColor"/>
</svg>
