<svg width="16" height="16" viewBox="0 0 16 16" fill="none" xmlns="http://www.w3.org/2000/svg">
<path fill-rule="evenodd" clip-rule="evenodd" d="M12 8C12 6.9 12.9 6 14 6C15.1 6 16 6.9 16 8C16 9.1 15.1 10 14 10C12.9 10 12 9.1 12 8ZM0 8C0 6.9 0.9 6 2 6C3.1 6 4 6.9 4 8C4 9.1 3.1 10 2 10C0.9 10 0 9.1 0 8ZM3 14C3 12.9 3.9 12 5 12C6.1 12 7 12.9 7 14C7 15.1 6.1 16 5 16C3.9 16 3 15.1 3 14ZM9 2C9 0.9 9.9 0 11 0C12.1 0 13 0.9 13 2C13 3.1 12.1 4 11 4C9.9 4 9 3.1 9 2ZM3 2C3 0.9 3.9 0 5 0C6.1 0 7 0.9 7 2C7 3.1 6.1 4 5 4C3.9 4 3 3.1 3 2Z" fill="currentColor"/>
<path fill-rule="evenodd" clip-rule="evenodd" d="M11 12C9.9 12 9 12.9 9 14C9 15.1 9.9 16 11 16C12.1 16 13 15.1 13 14C13 12.9 12.1 12 11 12Z" fill="currentColor"/>
<path fill-rule="evenodd" clip-rule="evenodd" d="M8 6C9.10457 6 10 6.89543 10 8C10 9.10457 9.10457 10 8 10C6.89543 10 6 9.10457 6 8C6 6.89543 6.89543 6 8 6ZM7.99219 6.49219C7.16405 6.49238 6.49239 7.16405 6.49219 7.99219C6.49219 8.82049 7.16393 9.49199 7.99219 9.49219C8.82061 9.49219 9.49219 8.82061 9.49219 7.99219C9.49199 7.16393 8.82049 6.49219 7.99219 6.49219Z" fill="currentColor"/>
</svg>
