<svg width="16" height="16" viewBox="0 0 16 16" fill="none" xmlns="http://www.w3.org/2000/svg">
<path fill-rule="evenodd" clip-rule="evenodd" d="M10.6905 0.015665C10.7021 -0.000951152 10.725 -0.00498931 10.7416 0.00664544L11.8777 0.802131C11.8943 0.813766 11.8984 0.836666 11.8867 0.853281L10.3055 3.11148C11.0742 3.35706 11.598 3.62197 11.598 3.62197C11.598 3.62197 10.3178 5.82391 8.14661 5.82391C5.97539 5.82391 4.43255 3.77166 4.43255 3.77166C4.43255 3.77166 4.97961 3.42253 5.79055 3.1231L4.05617 1.05617C4.04314 1.04063 4.04517 1.01747 4.0607 1.00443L5.12311 0.112958C5.13867 0.0999194 5.16183 0.101946 5.17486 0.117485L7.37086 2.73458C7.55889 2.71331 7.75045 2.70142 7.94376 2.70142C8.22161 2.70142 8.49911 2.72254 8.77001 2.75838L10.6905 0.015665ZM11.12 5.92819C11.6995 5.51437 12.5762 4.43431 12.5762 4.43431C12.5762 4.43431 14.8157 6.209 14.8157 9.972C14.8157 13.735 10.944 15.9998 10.944 15.9998C10.944 15.9998 9.09411 14.1316 8.63998 11.7634C8.18589 9.39528 9.31173 6.76572 9.31173 6.76572C9.31173 6.76572 10.5406 6.342 11.12 5.92819ZM4.87995 5.92819C4.30055 5.51437 3.4238 4.43431 3.4238 4.43431C3.4238 4.43431 1.1843 6.209 1.1843 9.972C1.1843 13.735 5.05605 15.9998 5.05605 15.9998C5.05605 15.9998 6.90589 14.1316 7.36001 11.7634C7.81411 9.39528 6.68826 6.76572 6.68826 6.76572C6.68826 6.76572 5.45939 6.342 4.87995 5.92819Z" fill="white"/>
</svg>
