<svg width="16" height="16" viewBox="0 0 16 16" fill="none" xmlns="http://www.w3.org/2000/svg">
<g clip-path="url(#clip0_1_124)">
<path fill-rule="evenodd" clip-rule="evenodd" d="M3.52394 13.7548C3.51959 13.7548 3.51656 13.7505 3.518 13.7464L7.60284 2.2042C7.60375 2.20169 7.60612 2.20001 7.60878 2.20001H11.9695C11.9721 2.20001 11.9745 2.2017 11.9754 2.20423L15.9997 13.7465C16.0011 13.7506 15.998 13.7548 15.9937 13.7548H3.64669H3.52394ZM0.00635185 13.8C0.00196454 13.8 -0.00107288 13.7956 0.000466058 13.7915L3.04233 5.67051C3.04325 5.66804 3.0456 5.66642 3.04822 5.66642H5.69125C5.69562 5.66642 5.69865 5.67076 5.69715 5.67486L2.75576 13.7959C2.75486 13.7983 2.7525 13.8 2.74985 13.8H0.00635185Z" fill="currentColor"/>
</g>
<defs>
<clipPath id="clip0_1_124">
<rect width="16" height="16" fill="currentColor"/>
</clipPath>
</defs>
</svg>
