<svg width="16" height="16" viewBox="0 0 16 16" fill="none" xmlns="http://www.w3.org/2000/svg">
<path fill-rule="evenodd" clip-rule="evenodd" d="M8.77618 7.96503C8.88462 7.89891 8.97662 7.76034 9.0508 7.60634C10.0272 8.00541 10.7134 8.94841 10.7134 10.0481C10.7134 11.5091 9.50243 12.6934 8.00868 12.6934C7.39549 12.6934 6.82996 12.4938 6.37631 12.1575C6.22749 12.087 6.10505 12.0193 6.00487 11.9639C5.84946 11.878 5.74756 11.8217 5.68374 11.8305C5.49721 11.8562 5.55137 12.0278 5.60059 12.1837C5.63399 12.2896 5.66515 12.3883 5.61693 12.429C5.56649 12.4716 5.40312 12.3158 5.21221 12.1338C4.95234 11.886 4.64146 11.5896 4.49487 11.6787C4.37896 11.7491 4.49149 11.94 4.62924 12.1738L4.63946 12.1911C4.69765 12.2899 4.76509 12.3906 4.82662 12.4824C4.95171 12.669 5.05246 12.8193 5.00205 12.8448C4.94112 12.8755 4.51655 12.589 4.15877 12.1911C4.02068 12.0376 3.88693 11.8712 3.76262 11.7165V11.7165C3.49052 11.3779 3.26384 11.0959 3.13659 11.1293C2.98351 11.1695 3.09931 11.4852 3.26946 11.7891C3.34902 11.9312 3.44262 12.0758 3.52365 12.2011V12.2012C3.64968 12.396 3.74534 12.5438 3.71065 12.562C3.66384 12.5865 3.25193 12.1848 2.97216 11.6787C2.80599 11.378 2.66646 11.0457 2.5535 10.7768C2.43099 10.4851 2.33974 10.2678 2.27965 10.2459C2.07088 10.1699 2.07088 10.5956 2.15461 11.2099C2.16554 11.2901 2.1818 11.3742 2.20183 11.4598C3.01384 14.087 5.50824 16 8.45946 16C12.0694 16 14.9957 13.1379 14.9957 9.60725C14.9957 6.24688 12.3448 3.49209 8.97674 3.23419C8.98099 3.07589 9.06362 2.76197 9.06362 2.76197C9.06362 2.76197 9.65821 1.32335 9.68965 1.01593C9.69171 0.995531 9.69418 0.973359 9.69684 0.949747C9.73387 0.617591 9.80277 0 9.27146 0C8.98771 0 8.85577 0.211083 8.70487 0.452497V0.4525C8.64693 0.545178 8.58618 0.642328 8.51299 0.733719C7.98587 1.39199 7.09949 2.21403 6.5969 2.65197C5.53459 3.57762 4.49234 4.33838 3.88446 4.78206L3.88443 4.78209C3.60796 4.98387 3.42137 5.12009 3.36362 5.17637C2.92843 5.60063 1.36805 8.41519 1.36805 8.41519C1.36805 8.41519 0.863439 9.31819 1.0428 9.50134C1.22216 9.68447 1.65468 9.6425 1.65468 9.6425C1.65468 9.6425 7.46534 8.30947 7.98555 8.20434C8.12562 8.17603 8.22449 8.15969 8.3004 8.14716C8.50649 8.11313 8.54349 8.107 8.77618 7.96503ZM4.66784 6.252C4.35593 6.54847 3.83865 7.25612 3.83865 7.25612C3.83865 7.25612 4.80002 7.31534 5.32949 6.81206C5.85899 6.30875 5.73768 5.45103 5.73768 5.45103C5.73768 5.45103 4.97971 5.95553 4.66784 6.252Z" fill="currentColor"/>
</svg>
