<svg width="16" height="16" viewBox="0 0 16 16" fill="none" xmlns="http://www.w3.org/2000/svg">
<path fill-rule="evenodd" clip-rule="evenodd" d="M13.1902 10.8286C13.1902 13.6843 10.8665 15.9993 8 15.9993C5.13353 15.9993 2.80981 13.6843 2.80981 10.8286C2.80981 8.05122 7.71925 0.423372 7.9885 0.00711906C7.99466 -0.00237308 8.00538 -0.002373 8.0115 0.00711915C8.28075 0.423372 13.1902 8.05122 13.1902 10.8286ZM7.13481 14.3416C4.50106 13.7653 4.95175 10.8478 4.95175 10.8478C4.95175 10.8478 5.67094 12.609 7.41622 13.1795C9.16147 13.75 11.2706 12.9133 11.2706 12.9133C11.2706 12.9133 9.76856 14.9178 7.13481 14.3416Z" fill="white"/>
</svg>
