<svg width="16" height="16" viewBox="0 0 16 16" fill="none" xmlns="http://www.w3.org/2000/svg">
<path fill-rule="evenodd" clip-rule="evenodd" d="M3.16037 13.7382C3.10545 13.6865 3.05114 13.6339 2.99746 13.5802C0.163567 10.7463 0.163567 6.15167 2.99746 3.3178C5.83134 0.483896 14.8612 0.294312 14.8612 0.294312C14.8612 0.294312 16.0938 10.7463 13.2599 13.5802C10.743 16.0971 6.83734 16.3786 4.00974 14.4249L6.28812 11.629L9.93031 10.8426L6.95721 10.5454L8.84665 8.62158L10.9974 8.15042L9.29671 7.64677L10.9974 4.57877L8.57834 7.29214L7.64418 5.97392L7.97302 8.15042L6.28812 10.0499L5.50709 7.64674V10.8426L3.16037 13.7382Z" fill="currentColor"/>
</svg>
