<svg width="16" height="16" viewBox="0 0 16 16" fill="none" xmlns="http://www.w3.org/2000/svg">
<path fill-rule="evenodd" clip-rule="evenodd" d="M2.75938 1.33018C2.95301 0.565669 3.64561 0 4.47029 0C5.08889 0 5.63317 0.318272 5.94829 0.8H6.46433C6.78492 0.470987 7.23283 0.266667 7.72848 0.266667C8.45517 0.266667 9.07929 0.705881 9.34986 1.33333H9.78189C10.0526 1.16433 10.3725 1.06667 10.7151 1.06667C11.4419 1.06667 12.066 1.50588 12.3365 2.13333H13.5114C13.5214 2.13333 13.5308 2.13604 13.5389 2.14075C13.5925 2.13584 13.6469 2.13333 13.7018 2.13333C14.6765 2.13333 15.4666 2.92348 15.4666 3.89819V9.19019L15.4667 9.2L15.4666 9.20981V9.28603C15.4666 9.31831 15.4658 9.35047 15.464 9.38247C15.3578 13.0537 12.0567 16 7.99998 16C3.87626 16 0.533325 12.9555 0.533325 9.2C0.533325 7.38722 1.31223 5.74009 2.58187 4.52109C2.57871 6.28837 2.60856 8.11544 2.74616 8.08409C3.11461 8.00009 2.82673 2.52623 2.75938 1.33018Z" fill="white"/>
</svg>
