<svg width="16" height="16" viewBox="0 0 16 16" fill="none" xmlns="http://www.w3.org/2000/svg">
<g clip-path="url(#clip0_1_98)">
<path fill-rule="evenodd" clip-rule="evenodd" d="M5.58478 14.9333C7.92862 14.9333 9.93525 13.6307 10.7637 11.7841C10.7738 11.7615 7.43775 12.651 7.54412 12.3366C7.59162 12.1962 9.63662 11.4491 11.1265 10.5777C11.9829 10.0769 12.3772 9.01668 12.3772 9.01668C12.3772 9.01668 10.9345 9.71715 10.2052 9.89484C8.7354 10.253 7.44162 10.2144 7.44162 10.1771C7.44162 10.0964 9.58991 9.68821 12.5758 7.86868C13.9802 7.01284 14.3617 5.53865 14.3617 5.53865C14.3617 5.53865 12.8176 6.4584 11.8842 6.76206C9.67056 7.48215 7.6505 7.69915 7.6505 7.60171C7.6505 7.39309 9.42822 6.90424 11.313 5.99096C12.293 5.51612 13.1417 4.89574 14.1253 4.20584C15.7346 3.07706 16 1.06668 16 1.06668C16 1.06668 14.4127 2.09043 13.6382 2.43041C10.4419 3.83327 7.61969 4.56915 5.58478 4.72846C2.51303 4.96896 3.05176e-05 7.11218 3.05176e-05 9.89484C3.05176e-05 12.6775 2.5004 14.9333 5.58478 14.9333Z" fill="currentColor"/>
</g>
<defs>
<clipPath id="clip0_1_98">
<rect width="16" height="16" fill="white"/>
</clipPath>
</defs>
</svg>
