<svg width="16" height="16" viewBox="0 0 16 16" fill="none" xmlns="http://www.w3.org/2000/svg">
<g clip-path="url(#clip0_1_100)">
<path fill-rule="evenodd" clip-rule="evenodd" d="M0.00159721 7.95812C-0.000531394 7.95449 -0.000532463 7.94999 0.00159436 7.94634L4.02484 1.07241C4.02694 1.06884 4.03078 1.06665 4.03491 1.06665H12.0092C12.0133 1.06665 12.0172 1.06886 12.0193 1.07246L15.9984 7.9464C16.0005 7.94999 16.0005 7.95446 15.9984 7.95806L12.0193 14.8243C12.0172 14.8279 12.0133 14.8301 12.0092 14.8301H4.03491C4.03078 14.8301 4.02694 14.8279 4.02484 14.8243L0.00159721 7.95812ZM11.7068 7.94837C11.7068 9.99487 10.0478 11.6539 8.00125 11.6539C5.95475 11.6539 4.29572 9.99487 4.29572 7.94837C4.29572 5.90184 5.95475 4.24284 8.00125 4.24284C10.0478 4.24284 11.7068 5.90184 11.7068 7.94837Z" fill="white"/>
</g>
<defs>
<clipPath id="clip0_1_100">
<rect width="16" height="16" fill="white"/>
</clipPath>
</defs>
</svg>
