<svg width="16" height="16" viewBox="0 0 16 16" fill="none" xmlns="http://www.w3.org/2000/svg">
<path fill-rule="evenodd" clip-rule="evenodd" d="M11.0134 12.3561C11.2111 11.6332 10.8274 10.1472 10.8274 10.1472C10.8274 10.1472 10.5491 11.3578 10.1142 11.8052C9.74319 12.1869 9.28866 12.4516 8.63678 12.5212C9.16975 12.2623 9.53628 11.7225 9.53628 11.0986C9.53628 10.2228 8.81403 9.51278 7.92309 9.51278C7.03216 9.51278 6.30988 10.2228 6.30988 11.0986C6.30988 11.3378 6.36378 11.5646 6.46025 11.768C5.903 11.3241 5.81538 10.6123 5.81538 10.6123C5.81538 10.6123 5.19313 13.1958 6.90769 14.411C8.62222 15.6263 11.9809 14.5817 11.9809 14.5817C11.9809 14.5817 7.17441 17.9637 3.61272 14.2828C0.54462 11.112 2.81194 6.93759 2.81194 6.93759C2.81194 6.93759 2.71402 7.32484 2.71402 7.77437C2.71402 8.22391 2.95775 8.56594 2.95775 8.56594C2.95775 8.56594 3.68478 7.03347 4.2506 6.41025C4.7861 5.82044 5.45738 5.34206 6.03719 4.92887C6.4835 4.61081 6.87563 4.33138 7.10981 4.06947C8.39972 2.62715 7.60881 0 7.60881 0C7.60881 0 9.06288 1.28188 9.46881 2.93743C9.62356 3.5685 9.524 4.28653 9.435 4.92863C9.2905 5.971 9.17372 6.81328 10.2176 6.75863C11.9046 6.67028 10.4387 4.06947 10.4387 4.06947C10.4387 4.06947 14.2653 6.08072 13.9794 9.59828C13.6935 13.1158 9.79672 13.9155 9.79672 13.9155C9.79672 13.9155 10.8157 13.0789 11.0134 12.3561Z" fill="currentColor"/>
</svg>
