<?xml version="1.0" encoding="utf-8"?><svg xmlns="http://www.w3.org/2000/svg" xmlns:xlink="http://www.w3.org/1999/xlink"><symbol fill="none" viewBox="0 0 16 16" id="icon-favorites" xmlns="http://www.w3.org/2000/svg"><path d="M8 12.859 12.944 16l-1.312-5.92L16 6.097l-5.752-.522L8 0 5.752 5.575 0 6.097l4.36 3.983L3.056 16 8 12.859Z" fill="#fff"/></symbol><symbol fill="none" viewBox="0 0 16 16" id="icon-movesets" xmlns="http://www.w3.org/2000/svg"><path d="M12.86 7.29c-.197-.268-.437-.499-.66-.73-.574-.533-1.225-.915-1.774-1.475C9.15 3.787 8.866 1.645 9.681 0c-.815.204-1.526.667-2.134 1.173-2.22 1.85-3.094 5.112-2.049 7.912a.773.773 0 0 1 .069.293.492.492 0 0 1-.3.444c-.197.09-.403.036-.566-.106a.511.511 0 0 1-.12-.151c-.968-1.271-1.122-3.094-.47-4.552-1.432 1.21-2.212 3.254-2.1 5.183.05.444.102.889.248 1.333.12.534.351 1.067.608 1.538.926 1.538 2.529 2.64 4.251 2.862 1.834.24 3.797-.106 5.202-1.422 1.568-1.476 2.117-3.84 1.311-5.867l-.111-.23c-.18-.41-.66-1.12-.66-1.12Zm-2.708 5.6a2.78 2.78 0 0 1-.943.533c-.96.355-1.92-.143-2.485-.73a2.422 2.422 0 0 0 1.808-1.822c.146-.71-.128-1.297-.24-1.982-.103-.658-.085-1.218.146-1.831.163.338.334.676.54.942.66.89 1.697 1.28 1.92 2.49.034.124.05.248.05.381.027.73-.282 1.53-.796 2.018Z" fill="#fff"/></symbol><symbol fill="none" viewBox="0 0 16 16" id="icon-pokedex" xmlns="http://www.w3.org/2000/svg"><path d="M8 0a8 8 0 1 1 0 16A8 8 0 0 1 8 0Zm0 1.6a6.399 6.399 0 0 0-6.352 5.6h3.256A3.193 3.193 0 0 1 8 4.8a3.193 3.193 0 0 1 3.096 2.4h3.256A6.399 6.399 0 0 0 8 1.6Zm0 12.8c3.264 0 5.96-2.44 6.352-5.6h-3.256A3.193 3.193 0 0 1 8 11.2a3.193 3.193 0 0 1-3.096-2.4H1.648A6.399 6.399 0 0 0 8 14.4Zm0-8a1.6 1.6 0 1 0 0 3.2 1.6 1.6 0 0 0 0-3.2Z" fill="#fff"/></symbol><symbol fill="none" viewBox="0 0 16 16" id="icon-team" xmlns="http://www.w3.org/2000/svg"><path fill-rule="evenodd" clip-rule="evenodd" d="M12 8c0-1.1.9-2 2-2s2 .9 2 2-.9 2-2 2-2-.9-2-2ZM0 8c0-1.1.9-2 2-2s2 .9 2 2-.9 2-2 2-2-.9-2-2Zm3 6c0-1.1.9-2 2-2s2 .9 2 2-.9 2-2 2-2-.9-2-2ZM9 2c0-1.1.9-2 2-2s2 .9 2 2-.9 2-2 2-2-.9-2-2ZM3 2c0-1.1.9-2 2-2s2 .9 2 2-.9 2-2 2-2-.9-2-2ZM11 12c-1.1 0-2 .9-2 2s.9 2 2 2 2-.9 2-2-.9-2-2-2ZM8 6a2 2 0 1 1 0 4 2 2 0 0 1 0-4Zm-.008.492a1.5 1.5 0 1 0 .001 3.001 1.5 1.5 0 0 0 0-3Z" fill="#fff"/></symbol><symbol fill="none" viewBox="0 0 16 16" id="icon-type-bug" xmlns="http://www.w3.org/2000/svg"><path fill-rule="evenodd" clip-rule="evenodd" d="M10.69.016a.037.037 0 0 1 .052-.01l1.136.796c.016.012.02.035.009.051l-1.582 2.258a9.69 9.69 0 0 1 1.293.511s-1.28 2.202-3.451 2.202c-2.172 0-3.714-2.052-3.714-2.052s.547-.35 1.358-.649L4.056 1.056a.037.037 0 0 1 .005-.052L5.123.113a.037.037 0 0 1 .052.004L7.37 2.735a5.1 5.1 0 0 1 .573-.034c.278 0 .555.022.826.057L10.69.016Zm.43 5.912c.58-.414 1.456-1.494 1.456-1.494s2.24 1.775 2.24 5.538c0 3.763-3.872 6.028-3.872 6.028s-1.85-1.868-2.304-4.237c-.454-2.368.672-4.997.672-4.997s1.229-.424 1.808-.838Zm-6.24 0c-.58-.414-1.456-1.494-1.456-1.494s-2.24 1.775-2.24 5.538C1.184 13.735 5.056 16 5.056 16s1.85-1.868 2.304-4.237c.454-2.368-.672-4.997-.672-4.997S5.46 6.342 4.88 5.928Z" fill="#fff"/></symbol><symbol fill="none" viewBox="0 0 16 16" id="icon-type-dark" xmlns="http://www.w3.org/2000/svg"><g clip-path="url(#fa)"><path fill-rule="evenodd" clip-rule="evenodd" d="M7.179 14.152A6.111 6.111 0 1 0 7.44 2.037C9.115 3.304 10.222 5.501 10.222 8c0 2.626-1.223 4.92-3.043 6.152ZM8 16A8 8 0 1 0 8 0a8 8 0 0 0 0 16Z" fill="#fff"/></g><defs><clipPath id="fa"><path fill="#fff" d="M0 0h16v16H0z"/></clipPath></defs></symbol><symbol fill="none" viewBox="0 0 16 16" id="icon-type-dragon" xmlns="http://www.w3.org/2000/svg"><path fill-rule="evenodd" clip-rule="evenodd" d="M8.776 7.965c.109-.066.2-.205.275-.359.976.4 1.662 1.342 1.662 2.442 0 1.461-1.21 2.645-2.704 2.645-.614 0-1.179-.2-1.633-.535a6.383 6.383 0 0 1-.371-.194c-.156-.086-.257-.142-.321-.133-.187.025-.133.197-.083.353.033.106.064.204.016.245-.05.043-.214-.113-.405-.295-.26-.248-.57-.544-.717-.455-.116.07-.004.261.134.495l.01.017c.059.099.126.2.188.291.125.187.225.337.175.363-.06.03-.485-.256-.843-.654-.138-.153-.272-.32-.396-.475-.272-.338-.5-.62-.626-.587-.153.04-.038.356.132.66.08.142.174.287.255.412.126.195.221.343.187.361-.047.024-.46-.377-.739-.883-.166-.301-.306-.633-.418-.902-.123-.292-.214-.51-.274-.531-.21-.076-.21.35-.125.964.01.08.027.164.047.25C3.014 14.087 5.508 16 8.459 16c3.61 0 6.537-2.862 6.537-6.393 0-3.36-2.651-6.115-6.02-6.373.005-.158.088-.472.088-.472s.594-1.439.626-1.746L9.697.95C9.734.618 9.803 0 9.27 0c-.283 0-.415.211-.566.452-.058.093-.119.19-.192.282-.527.658-1.414 1.48-1.916 1.918-1.062.926-2.105 1.686-2.713 2.13a8.082 8.082 0 0 0-.52.394c-.436.425-1.996 3.24-1.996 3.24s-.505.902-.325 1.085c.18.183.612.142.612.142s5.81-1.334 6.33-1.439c.14-.028.24-.044.315-.057.206-.034.243-.04.476-.182ZM4.668 6.252c-.312.296-.83 1.004-.83 1.004s.962.06 1.491-.444c.53-.503.409-1.361.409-1.361s-.758.505-1.07.801Z" fill="#fff"/></symbol><symbol fill="none" viewBox="0 0 16 16" id="icon-type-electric" xmlns="http://www.w3.org/2000/svg"><path fill-rule="evenodd" clip-rule="evenodd" d="M4.952 1.567A.47.47 0 0 1 5.397.95H9.82a.47.47 0 0 1 .45.335l2.207 7.429a.47.47 0 0 1-.45.602H9.345a.235.235 0 0 0-.226.297l1.32 4.842c.138.504-.527.822-.833.398l-6.013-8.33a.47.47 0 0 1 .38-.743h2.053c.16 0 .273-.157.223-.309L4.952 1.567Z" fill="#fff"/></symbol><symbol fill="none" viewBox="0 0 16 16" id="icon-type-fairy" xmlns="http://www.w3.org/2000/svg"><g clip-path="url(#ia)"><path fill-rule="evenodd" clip-rule="evenodd" d="m3.21 12.687 2.567-.744 2.216 4.053c.003.005.01.005.013 0l2.217-4.053 2.566.744a.008.008 0 0 0 .01-.01l-.745-2.515 3.941-2.156a.008.008 0 0 0 0-.013L12.023 5.82l.777-2.625a.008.008 0 0 0-.01-.01l-2.626.762L8.006.004a.008.008 0 0 0-.013 0L5.837 3.947 3.21 3.185a.008.008 0 0 0-.01.01l.778 2.625L.004 7.993a.008.008 0 0 0 0 .013l3.941 2.156-.744 2.515a.008.008 0 0 0 .01.01Zm1.992-4.66 1.818.995.994 1.818c.003.005.01.005.013 0l.995-1.818 1.818-.995a.008.008 0 0 0 0-.013L9.022 7.02l-.995-1.818a.008.008 0 0 0-.013 0L7.02 7.02l-1.818.994a.008.008 0 0 0 0 .013Z" fill="#fff"/></g><defs><clipPath id="ia"><path fill="#fff" d="M0 0h16v16H0z"/></clipPath></defs></symbol><symbol fill="none" viewBox="0 0 16 16" id="icon-type-fighting" xmlns="http://www.w3.org/2000/svg"><path fill-rule="evenodd" clip-rule="evenodd" d="M2.76 1.33A1.766 1.766 0 0 1 5.947.8h.516a1.765 1.765 0 0 1 2.886.533h.432a1.765 1.765 0 0 1 2.555.8h1.174c.01 0 .02.003.028.008a1.765 1.765 0 0 1 1.928 1.757V9.286l-.003.096C15.358 13.054 12.057 16 8 16 3.876 16 .533 12.956.533 9.2c0-1.813.78-3.46 2.049-4.679-.003 1.767.027 3.594.164 3.563.369-.084.08-5.558.013-6.754Z" fill="#fff"/></symbol><symbol fill="none" viewBox="0 0 16 16" id="icon-type-fire" xmlns="http://www.w3.org/2000/svg"><path fill-rule="evenodd" clip-rule="evenodd" d="M11.013 12.356c.198-.723-.186-2.209-.186-2.209s-.278 1.21-.713 1.658a2.297 2.297 0 0 1-1.477.716c.533-.259.9-.799.9-1.422 0-.876-.723-1.586-1.614-1.586-.89 0-1.613.71-1.613 1.586 0 .239.054.466.15.669-.557-.444-.645-1.156-.645-1.156s-.622 2.584 1.093 3.799c1.714 1.215 5.073.17 5.073.17s-4.807 3.383-8.368-.298c-3.068-3.171-.801-7.345-.801-7.345s-.098.387-.098.836c0 .45.244.792.244.792S3.685 7.033 4.25 6.41c.535-.59 1.206-1.068 1.786-1.481.447-.318.839-.598 1.073-.86C8.4 2.627 7.609 0 7.609 0s1.454 1.282 1.86 2.937c.155.631.055 1.35-.034 1.992-.145 1.042-.261 1.884.783 1.83 1.687-.089.22-2.69.22-2.69s3.827 2.012 3.541 5.53c-.285 3.517-4.182 4.316-4.182 4.316s1.019-.836 1.216-1.559Z" fill="#fff"/></symbol><symbol fill="none" viewBox="0 0 16 16" id="icon-type-flying" xmlns="http://www.w3.org/2000/svg"><g clip-path="url(#la)"><path fill-rule="evenodd" clip-rule="evenodd" d="M5.585 14.933c2.344 0 4.35-1.302 5.179-3.149.01-.023-3.326.867-3.22.553.048-.14 2.093-.888 3.583-1.76.856-.5 1.25-1.56 1.25-1.56s-1.443.7-2.172.878c-1.47.358-2.763.32-2.763.282 0-.08 2.148-.489 5.134-2.308 1.404-.856 1.786-2.33 1.786-2.33s-1.544.92-2.478 1.223c-2.213.72-4.234.937-4.234.84 0-.209 1.778-.698 3.663-1.611.98-.475 1.829-1.095 2.812-1.785C15.735 3.077 16 1.066 16 1.066S14.413 2.09 13.638 2.43C10.442 3.833 7.62 4.57 5.585 4.728 2.513 4.97 0 7.112 0 9.895s2.5 5.038 5.585 5.038Z" fill="#fff"/></g><defs><clipPath id="la"><path fill="#fff" d="M0 0h16v16H0z"/></clipPath></defs></symbol><symbol fill="none" viewBox="0 0 16 16" id="icon-type-ghost" xmlns="http://www.w3.org/2000/svg"><g clip-path="url(#ma)"><path fill-rule="evenodd" clip-rule="evenodd" d="M11.53 15.945c-1.444.073-3.096.073-3.657 0C3.493 15.368 0 12.166 0 7.838 0 3.509 3.582 0 8 0s8 3.509 8 7.838a7.72 7.72 0 0 1-2.048 5.237c-.346.377.129.64.61.91.473.263.953.53.674.912-.307.42-1.974.959-3.706 1.048ZM6.875 6.858c0 .676-.56 1.224-1.25 1.224s-1.25-.548-1.25-1.224c0-.454.252-.85.626-1.061.021.59 1.279 1.06 1.874 1.06Zm3.874-1.061c-.021.59-1.279 1.06-1.874 1.06 0 .677.56 1.225 1.25 1.225s1.25-.548 1.25-1.224c0-.454-.252-.85-.626-1.061Z" fill="#fff"/></g><defs><clipPath id="ma"><path fill="#fff" d="M0 0h16v16H0z"/></clipPath></defs></symbol><symbol fill="none" viewBox="0 0 16 16" id="icon-type-grass" xmlns="http://www.w3.org/2000/svg"><path fill-rule="evenodd" clip-rule="evenodd" d="M3.16 13.738a7.257 7.257 0 0 1-.163-10.42C5.831.484 14.861.294 14.861.294s1.233 10.452-1.601 13.286a7.259 7.259 0 0 1-9.25.845l2.278-2.796 3.642-.786-2.973-.298 1.89-1.923 2.15-.472-1.7-.503 1.7-3.068-2.419 2.713-.934-1.318.329 2.176-1.685 1.9-.78-2.403v3.196L3.16 13.738Z" fill="#fff"/></symbol><symbol fill="none" viewBox="0 0 16 16" id="icon-type-ground" xmlns="http://www.w3.org/2000/svg"><g clip-path="url(#oa)"><path fill-rule="evenodd" clip-rule="evenodd" d="M3.524 13.755a.006.006 0 0 1-.006-.009L7.603 2.204c0-.002.003-.004.006-.004h4.36c.003 0 .006.002.006.004L16 13.746a.006.006 0 0 1-.006.009H3.524ZM.006 13.8A.006.006 0 0 1 0 13.791l3.042-8.12c.001-.003.004-.005.006-.005h2.643c.005 0 .008.005.006.009l-2.941 8.12a.006.006 0 0 1-.006.005H.006Z" fill="#fff"/></g><defs><clipPath id="oa"><path fill="#fff" d="M0 0h16v16H0z"/></clipPath></defs></symbol><symbol fill="none" viewBox="0 0 16 16" id="icon-type-ice" xmlns="http://www.w3.org/2000/svg"><g clip-path="url(#pa)" fill-rule="evenodd" clip-rule="evenodd" fill="#fff"><path d="m12.064 1.144.004 4.341-3.72 1.76V3.213l3.716-2.069ZM15.802 7.974 12.064 9.8 8.349 7.974l3.715-1.787 3.738 1.787ZM7.667 7.974 3.932 9.8.198 7.97l3.694-1.784 3.775 1.787ZM3.892 1.144l3.775 2.07v4.03L3.892 5.403V1.144ZM12.068 14.856l-3.72-2.043V8.639l3.72 1.811v4.406ZM3.932 14.856V10.45L7.667 8.64v4.174l-3.735 2.043Z"/></g><defs><clipPath id="pa"><path fill="#fff" d="M0 0h16v16H0z"/></clipPath></defs></symbol><symbol fill="none" viewBox="0 0 16 16" id="icon-type-normal" xmlns="http://www.w3.org/2000/svg"><path fill-rule="evenodd" clip-rule="evenodd" d="M15.031 8A7.031 7.031 0 1 1 .97 8a7.031 7.031 0 0 1 14.062 0Zm-3.013 0a4.018 4.018 0 1 1-8.036 0 4.018 4.018 0 0 1 8.036 0Z" fill="#fff"/></symbol><symbol fill="none" viewBox="0 0 16 16" id="icon-type-poison" xmlns="http://www.w3.org/2000/svg"><g clip-path="url(#ra)"><path fill-rule="evenodd" clip-rule="evenodd" d="M13.37 12.295C14.984 11.003 16 9.137 16 7.061 16 3.16 12.418 0 8 0S0 3.161 0 7.06c0 2.002.943 3.808 2.458 5.093a3.68 3.68 0 0 0-.142 1.023c0 1.56.942 2.824 2.105 2.824.756 0 1.418-.534 1.79-1.336C6.58 15.466 7.245 16 8 16c.689 0 1.3-.444 1.684-1.13.384.686.996 1.13 1.684 1.13 1.163 0 2.106-1.264 2.106-2.824 0-.308-.037-.604-.105-.88Zm-.738-5.094c0 1.98-2.121 3.585-4.737 3.585S3.158 9.18 3.158 7.2s2.12-3.585 4.737-3.585c2.616 0 4.737 1.605 4.737 3.585Z" fill="#fff"/></g><defs><clipPath id="ra"><path fill="#fff" d="M0 0h16v16H0z"/></clipPath></defs></symbol><symbol fill="none" viewBox="0 0 16 16" id="icon-type-psychic" xmlns="http://www.w3.org/2000/svg"><path fill-rule="evenodd" clip-rule="evenodd" d="M14.257 13.289s-2.018 1.618-6.033.948c-3.046-.508-4.67-3.866-4.67-5.67 0-4.28 3.167-5.253 5.308-5.253S12.4 5.4 12.4 7.018c0 1.616-1.143 3.03-2.922 3.03-1.78 0-2.306-1.25-2.306-2.398 0-1.148.929-1.552 1.776-1.552s1.137.723 1.137 1.345c0 .621-.482.844-.884.844s-.442-.203-.596-.416c-.154-.214.196-1.021-.38-1.021-.578 0-.685.928-.685.928s.21 1.792 1.938 1.76c1.728-.03 2.547-1.366 2.309-2.688s-1.522-2.728-3.774-2.444c-2.252.284-3.172 2.56-2.766 4.992.405 2.432 3.318 3.841 5.61 3.334 2.29-.507 4.572-2.165 4.572-6.37S11.787-.37 7.445.046C3.102.463.407 4.26.579 8.821c.173 4.561 4.501 7.045 8.161 7.173 3.66.128 5.904-1.99 5.904-1.99s.504-.45.306-.801c-.197-.352-.693.086-.693.086Z" fill="#fff"/></symbol><symbol fill="none" viewBox="0 0 16 16" id="icon-type-rock" xmlns="http://www.w3.org/2000/svg"><g clip-path="url(#ta)"><path fill-rule="evenodd" clip-rule="evenodd" d="M12.38 8.095a.006.006 0 0 1-.002-.005L13.4 2.138c0-.003.003-.005.006-.005h.323c.002 0 .004.002.005.004l2.3 7.282c0 .002 0 .004-.002.006l-1.696 1.324a.006.006 0 0 1-.008-.001L12.38 8.095ZM0 12.04c0 .003.002.005.004.006l3.495 1.143.005-.001 7.813-5.394a.006.006 0 0 0 .002-.004l.838-5.621a.006.006 0 0 0-.005-.007h-6.92c-.002 0-.004 0-.005.002L.001 8.468A.006.006 0 0 0 0 8.472v3.568Zm4.956 1.44 3.818 1.25h.005l4.547-3.261a.006.006 0 0 0 .001-.008l-1.704-2.536a.006.006 0 0 0-.008-.002l-6.66 4.557Z" fill="#fff"/></g><defs><clipPath id="ta"><path fill="#fff" d="M0 0h16v16H0z"/></clipPath></defs></symbol><symbol fill="none" viewBox="0 0 16 16" id="icon-type-steel" xmlns="http://www.w3.org/2000/svg"><g clip-path="url(#ua)"><path fill-rule="evenodd" clip-rule="evenodd" d="M.002 7.958a.012.012 0 0 1 0-.012l4.023-6.874a.012.012 0 0 1 .01-.005h7.974c.004 0 .008.002.01.005L16 7.946a.012.012 0 0 1 0 .012l-3.98 6.866a.012.012 0 0 1-.01.006H4.035a.012.012 0 0 1-.01-.006L.002 7.958Zm11.705-.01a3.706 3.706 0 1 1-7.411 0 3.706 3.706 0 0 1 7.41 0Z" fill="#fff"/></g><defs><clipPath id="ua"><path fill="#fff" d="M0 0h16v16H0z"/></clipPath></defs></symbol><symbol fill="none" viewBox="0 0 16 16" id="icon-type-water" xmlns="http://www.w3.org/2000/svg"><path fill-rule="evenodd" clip-rule="evenodd" d="M13.19 10.829c0 2.855-2.323 5.17-5.19 5.17-2.866 0-5.19-2.315-5.19-5.17C2.81 8.05 7.72.423 7.988.007c.007-.01.017-.01.023 0 .27.416 5.18 8.044 5.18 10.822Zm-6.055 3.513c-2.634-.577-2.183-3.494-2.183-3.494s.719 1.761 2.464 2.332c1.745.57 3.855-.267 3.855-.267s-1.502 2.005-4.136 1.429Z" fill="#fff"/></symbol><symbol fill="none" viewBox="0 0 16 17" id="icon-types" xmlns="http://www.w3.org/2000/svg"><path d="M8 16.75a6 6 0 0 1-6-6C2 6.75 8 0 8 0s6 6.75 6 10.75a6 6 0 0 1-6 6Z" fill="#fff"/></symbol></svg>